<svg width="40" height="40" viewBox="0 0 40 40" fill="none" xmlns="http://www.w3.org/2000/svg">
<g id="akar-icons:twitter-fill" clip-path="url(#clip0_127_539)">
<g id="Group">
<g id="Vector" filter="url(#filter0_d_127_539)">
<path d="M39.4051 8.22836C38.0134 8.84503 36.5184 9.26169 34.9468 9.45003C36.5684 8.47968 37.7817 6.95247 38.3601 5.15336C36.8365 6.05834 35.169 6.69535 33.4301 7.03669C32.2607 5.78814 30.7119 4.96057 29.024 4.68248C27.3361 4.4044 25.6036 4.69135 24.0955 5.49878C22.5874 6.30622 21.3881 7.58896 20.6837 9.14787C19.9793 10.7068 19.8093 12.4546 20.2001 14.12C17.1129 13.965 14.0928 13.1626 11.3358 11.7649C8.5788 10.3671 6.1465 8.4053 4.19677 6.00669C3.5301 7.15669 3.14677 8.49003 3.14677 9.91003C3.14602 11.1884 3.46082 12.4471 4.06323 13.5746C4.66564 14.7021 5.53704 15.6634 6.6001 16.3734C5.36723 16.3341 4.16156 16.001 3.08343 15.4017V15.5017C3.08331 17.2946 3.70349 19.0323 4.83874 20.42C5.97399 21.8077 7.55439 22.7599 9.31177 23.115C8.16807 23.4246 6.969 23.4701 5.8051 23.2484C6.30093 24.791 7.26676 26.1401 8.56738 27.1066C9.868 28.0731 11.4383 28.6087 13.0584 28.6384C10.3082 30.7974 6.91158 31.9685 3.4151 31.9634C2.79574 31.9635 2.17689 31.9274 1.56177 31.855C5.11089 34.137 9.24233 35.3481 13.4618 35.3434C27.7451 35.3434 35.5534 23.5134 35.5534 13.2534C35.5534 12.92 35.5451 12.5834 35.5301 12.25C37.0489 11.1516 38.36 9.79152 39.4018 8.23336L39.4051 8.22836Z" fill="url(#paint0_linear_127_539)"/>
</g>
</g>
</g>
<defs>
<filter id="filter0_d_127_539" x="-2.43823" y="2.57916" width="45.8433" height="38.7642" filterUnits="userSpaceOnUse" color-interpolation-filters="sRGB">
<feFlood flood-opacity="0" result="BackgroundImageFix"/>
<feColorMatrix in="SourceAlpha" type="matrix" values="0 0 0 0 0 0 0 0 0 0 0 0 0 0 0 0 0 0 127 0" result="hardAlpha"/>
<feOffset dy="2"/>
<feGaussianBlur stdDeviation="2"/>
<feComposite in2="hardAlpha" operator="out"/>
<feColorMatrix type="matrix" values="0 0 0 0 0.2 0 0 0 0 0.2 0 0 0 0 0.2 0 0 0 0.25 0"/>
<feBlend mode="normal" in2="BackgroundImageFix" result="effect1_dropShadow_127_539"/>
<feBlend mode="normal" in="SourceGraphic" in2="effect1_dropShadow_127_539" result="shape"/>
</filter>
<linearGradient id="paint0_linear_127_539" x1="1.56177" y1="4.57916" x2="42.5522" y2="9.58792" gradientUnits="userSpaceOnUse">
<stop stop-color="#6A99DD"/>
<stop offset="1" stop-color="#BE58CB"/>
</linearGradient>
<clipPath id="clip0_127_539">
<rect width="40" height="40" fill="white"/>
</clipPath>
</defs>
</svg>
